<?xml version="1.0" encoding="UTF-8"?>
<svg width="45px" height="45px" viewBox="0 0 45 45" version="1.1" xmlns="http://www.w3.org/2000/svg" xmlns:xlink="http://www.w3.org/1999/xlink">
    <title>browsing-history</title>
    <g id="browsing-history" stroke="none" stroke-width="1" fill="none" fill-rule="evenodd">
        <path d="M22.4999864,45 C34.8088097,45 45.0001673,34.7867591 45.0001673,22.5 C45.0001673,10.1911767 34.7867636,0 22.4779403,0 C10.1911632,0 -4.97379915e-14,10.1911767 -4.97379915e-14,22.5 C-4.97379915e-14,34.7867591 10.2132545,45 22.4999864,45 Z M10.9632288,24.8823354 C10.0808874,24.8823354 9.4190975,24.2205907 9.4190975,23.3382492 C9.4190975,22.4779539 10.0808874,21.816164 10.9632288,21.816164 L20.9559003,21.816164 L20.9559003,8.47058607 C20.9559003,7.61029078 21.617645,6.94854601 22.4779403,6.94854601 C23.3382357,6.94854601 24.0220717,7.61029078 24.0220717,8.47058607 L24.0220717,23.3382492 C24.0220717,24.2205907 23.3382357,24.8823354 22.4779403,24.8823354 L10.9632288,24.8823354 Z" id="Shape" fill="#000000" fill-rule="nonzero"></path>
    </g>
</svg>