<?xml version="1.0" encoding="UTF-8"?>
<svg width="45px" height="45px" viewBox="0 0 45 45" version="1.1" xmlns="http://www.w3.org/2000/svg" xmlns:xlink="http://www.w3.org/1999/xlink">
    <title>contact-info</title>
    <g id="contact-info" stroke="none" stroke-width="1" fill="none" fill-rule="evenodd">
        <path d="M22.5445616,45.0445752 C34.8777701,45.0445752 45.089318,34.8111007 45.089318,22.5 C45.089318,10.1667915 34.8556804,-0.0445751964 22.5224718,-0.0445751964 C10.2113531,-0.0445751964 0,10.1667915 0,22.5 C0,34.8111007 10.2334881,45.0445752 22.5445616,45.0445752 Z M22.3235279,14.4325649 C20.6658433,14.4325649 19.3396864,13.1064081 19.3396864,11.4266336 C19.3396864,9.74685918 20.6658433,8.42070233 22.3235279,8.42070233 C23.9812579,8.42070233 25.2852797,9.74685918 25.2852797,11.4266336 C25.2852797,13.1064081 23.9812579,14.4325649 22.3235279,14.4325649 Z M18.5440014,35.076332 C17.5935974,35.076332 16.8642269,34.3911503 16.8642269,33.4407371 C16.8642269,32.5566476 17.5935974,31.8272772 18.5440014,31.8272772 L21.3510341,31.8272772 L21.3510341,21.4390565 L18.9197541,21.4390565 C17.9914399,21.4390565 17.2620695,20.7539109 17.2620695,19.8035068 C17.2620695,18.9193721 17.9914399,18.1900017 18.9197541,18.1900017 L23.2076627,18.1900017 C24.3791004,18.1900017 24.9979314,19.0299116 24.9979314,20.2676639 L24.9979314,31.8272772 L27.804964,31.8272772 C28.7553681,31.8272772 29.4847838,32.5566476 29.4847838,33.4407371 C29.4847838,34.3911503 28.7553681,35.076332 27.804964,35.076332 L18.5440014,35.076332 Z" id="Shape" fill="#000000" fill-rule="nonzero"></path>
    </g>
</svg>