<?xml version="1.0" encoding="UTF-8"?>
<svg width="45px" height="45px" viewBox="0 0 45 45" version="1.1" xmlns="http://www.w3.org/2000/svg" xmlns:xlink="http://www.w3.org/1999/xlink">
    <title>contacts</title>
    <g id="contacts" stroke="none" stroke-width="1" fill="none" fill-rule="evenodd">
        <path d="M22.4999028,45 C34.8087261,45 45.0000836,34.7867591 45.0000836,22.5 C45.0000836,10.1911767 34.78668,0 22.4778567,0 C10.1910795,0 -8.36416677e-05,10.1911767 -8.36416677e-05,22.5 C-8.36416677e-05,34.7867591 10.2131708,45 22.4999028,45 Z M22.4999028,30.0220612 C15.8822744,30.0220612 10.7646398,32.3823505 8.53667246,35.0294064 C5.55873059,31.7205605 3.77195645,27.3308995 3.77195645,22.5 C3.77195645,12.0882266 12.0660833,3.75000754 22.4778567,3.75000754 C32.8896301,3.75000754 41.2278492,12.0882266 41.2505775,22.5 C41.2721222,27.3308995 39.4631664,31.7205605 36.4852245,35.051466 C34.2572571,32.4043966 29.1396225,30.0220612 22.4999028,30.0220612 Z M22.4999028,26.2720536 C26.7351959,26.316191 30.0661014,22.6985054 30.0661014,17.9558807 C30.0661014,13.499991 26.7351959,9.79412084 22.4999028,9.79412084 C18.2646098,9.79412084 14.9116582,13.499991 14.933427,17.9558807 C14.9557955,22.6985054 18.2646098,26.2279162 22.4999028,26.2720536 Z" id="Shape" fill="#000000" fill-rule="nonzero"></path>
    </g>
</svg>