<?xml version="1.0" encoding="UTF-8"?>
<svg width="45px" height="45px" viewBox="0 0 45 45" version="1.1" xmlns="http://www.w3.org/2000/svg" xmlns:xlink="http://www.w3.org/1999/xlink">
    <title>diagnostics</title>
    <g id="diagnostics" stroke="none" stroke-width="1" fill="none" fill-rule="evenodd">
        <path d="M20.5191269,45 L24.4808596,45 C25.6004932,45 26.4186445,44.3325237 26.6555266,43.2344526 L27.775116,38.4976016 C28.6148302,38.2176975 29.4330257,37.894731 30.1435394,37.5502322 L34.2990286,40.0909021 C35.2248616,40.672242 36.279895,40.5861187 37.055009,39.8110003 L39.8325521,37.05502 C40.6076219,36.2798972 40.7152155,35.1602813 40.0909087,34.2344439 L37.5502476,30.1219832 C37.9162859,29.3684321 38.2392427,28.5933181 38.4760807,27.81816 L43.2560088,26.6770519 C44.3539916,26.4401699 44.9999934,25.6220185 44.9999934,24.502385 L44.9999934,20.6052524 C44.9999934,19.5071816 44.3539916,18.6889861 43.2560088,18.4521483 L38.5191621,17.310996 C38.2392427,16.4282445 37.8947231,15.6315677 37.593285,14.9640914 L40.1339902,10.7870834 C40.7368224,9.86125044 40.6724426,8.80621705 39.8755895,8.03110307 L37.055009,5.25360405 C36.2583763,4.52152748 35.3110246,4.39232712 34.3636288,4.93060315 L30.1435394,7.53586443 C29.4545444,7.16987028 28.6579117,6.84686936 27.775116,6.56699404 L26.6555266,1.76554715 C26.4186445,0.667476395 25.6004932,0 24.4808596,0 L20.5191269,0 C19.3995374,0 18.581342,0.667476395 18.3229854,1.76554715 L17.2033518,6.52391256 C16.3636377,6.80383197 15.5454422,7.12678877 14.8134098,7.51434573 L10.6363578,4.93060315 C9.6890061,4.39232712 8.72009159,4.5 7.9234589,5.25360405 L5.12439708,8.03110307 C4.32776443,8.80621705 4.24164555,9.86125044 4.86604046,10.7870834 L7.38518285,14.9640914 C7.10526347,15.6315677 6.76078797,16.4282445 6.48086856,17.310996 L1.74402182,18.4521483 C0.645951051,18.6889861 6.58455539e-06,19.5071816 6.58455539e-06,20.6052524 L6.58455539e-06,24.502385 C6.58455539e-06,25.6220185 0.645951051,26.4401699 1.74402182,26.6770519 L6.52395004,27.81816 C6.76078797,28.5933181 7.08374477,29.3684321 7.42822026,30.1219832 L4.90907785,34.2344439 C4.26316424,35.1602813 4.3923646,36.2798972 5.16747856,37.05502 L7.9234589,39.8110003 C8.69857288,40.5861187 9.7751249,40.672242 10.7009579,40.0909021 L14.8349285,37.5502322 C15.5670051,37.894731 16.3636377,38.2176975 17.2033518,38.4976016 L18.3229854,43.2344526 C18.581342,44.3325237 19.3995374,45 20.5191269,45 Z M22.4999933,30.1004646 C18.3229854,30.1004646 14.8995287,26.6554891 14.8995287,22.4784812 C14.8995287,18.3229479 18.3229854,14.8995353 22.4999933,14.8995353 C26.6770453,14.8995353 30.100502,18.3229479 30.100502,22.4784812 C30.100502,26.6554891 26.6770453,30.1004646 22.4999933,30.1004646 Z" id="Shape" fill="#000000" fill-rule="nonzero"></path>
    </g>
</svg>