<?xml version="1.0" encoding="UTF-8"?>
<svg width="45px" height="45px" viewBox="0 0 45 45" version="1.1" xmlns="http://www.w3.org/2000/svg" xmlns:xlink="http://www.w3.org/1999/xlink">
    <title>financial-info</title>
    <g id="financial-info" stroke="none" stroke-width="1" fill="none" fill-rule="evenodd">
        <path d="M39.0076501,4.93321031 L5.99234999,4.93321031 C2.00379462,4.93321031 0,6.898859 0,10.8492684 L0,13.8835894 L45,13.8835894 L45,10.8492684 C45,6.91797105 43.0153175,4.93321031 39.0076501,4.93321031 Z M8.6832012,33.4637414 C7.55723191,33.4637414 6.79388347,32.7003851 6.79388347,31.6316855 L6.79388347,28.1011548 C6.79388347,27.0133706 7.55723191,26.2690951 8.6832012,26.2690951 L13.3587741,26.2690951 C14.4656313,26.2690951 15.2289798,27.0133706 15.2289798,28.1011548 L15.2289798,31.6316855 C15.2289798,32.7003851 14.4656313,33.4637414 13.3587741,33.4637414 L8.6832012,33.4637414 Z M5.99234999,40.0667897 L39.0076501,40.0667897 C43.0153175,40.0667897 45,38.0820602 45,34.1507667 L45,18.2156534 L0,18.2156534 L0,34.1507667 C0,38.1011449 2.00379462,40.0667897 5.99234999,40.0667897 Z" id="Shape" fill="#000000" fill-rule="nonzero"></path>
    </g>
</svg>