<?xml version="1.0" encoding="UTF-8"?>
<svg width="45px" height="45px" viewBox="0 0 45 45" version="1.1" xmlns="http://www.w3.org/2000/svg" xmlns:xlink="http://www.w3.org/1999/xlink">
    <title>health-info</title>
    <g id="health-info" stroke="none" stroke-width="1" fill="none" fill-rule="evenodd">
        <path d="M22.4999028,45 C34.8087261,45 45.0000836,34.7867591 45.0000836,22.5 C45.0000836,10.1911767 34.78668,0 22.4778567,0 C10.1910795,0 -8.36416677e-05,10.1911767 -8.36416677e-05,22.5 C-8.36416677e-05,34.7867591 10.2131708,45 22.4999028,45 Z M17.0072585,12.4411903 C19.4557774,12.4411903 21.3307812,13.8308633 22.4778567,15.9044177 C23.6249322,13.8308633 25.521982,12.4411903 27.9484549,12.4411903 C31.8087381,12.4411903 34.5881294,15.3529486 34.5881294,19.3896911 C34.5881294,25.3455748 28.2351899,30.7941269 23.6249322,33.816161 C23.2499224,34.0808769 22.8307752,34.367639 22.5219941,34.367639 C22.2352139,34.367639 21.7499284,34.0588173 21.3307812,33.816161 C16.6763861,30.8603104 10.367584,25.3455748 10.367584,19.3896911 C10.367584,15.3529486 13.1469753,12.4411903 17.0072585,12.4411903 Z" id="Shape" fill="#000000" fill-rule="nonzero"></path>
    </g>
</svg>