<?xml version="1.0" encoding="UTF-8"?>
<svg width="45px" height="45px" viewBox="0 0 45 45" version="1.1" xmlns="http://www.w3.org/2000/svg" xmlns:xlink="http://www.w3.org/1999/xlink">
    <title>identifiers</title>
    <g id="identifiers" stroke="none" stroke-width="1" fill="none" fill-rule="evenodd">
        <path d="M38.9276403,5.92105263 C41.0391321,5.92105263 41.80481,6.14090276 42.5767398,6.55373535 C43.3486696,6.96656794 43.9544847,7.57238298 44.3673173,8.34431281 C44.7801499,9.11624263 45,9.88192056 45,11.9934123 L45,33.0065877 C45,35.1180794 44.7801499,35.8837574 44.3673173,36.6556872 C43.9544847,37.427617 43.3486696,38.0334321 42.5767398,38.4462646 C41.80481,38.8590972 41.0391321,39.0789474 38.9276403,39.0789474 L6.07235968,39.0789474 C3.96086793,39.0789474 3.19519,38.8590972 2.42326018,38.4462646 C1.65133035,38.0334321 1.04551531,37.427617 0.632682719,36.6556872 C0.219850132,35.8837574 9.50294288e-17,35.1180794 -1.63553733e-16,33.0065877 L1.63553733e-16,11.9934123 C-9.50294288e-17,9.88192056 0.219850132,9.11624263 0.632682719,8.34431281 C1.04551531,7.57238298 1.65133035,6.96656794 2.42326018,6.55373535 C3.19519,6.14090276 3.96086793,5.92105263 6.07235968,5.92105263 L38.9276403,5.92105263 Z M13.0829112,24.4360122 C7.28951866,24.4360122 3.67702304,28.4175932 3.67702304,31.3031141 C3.67702304,32.2873213 4.30332027,32.7906106 6.05925677,32.7906106 L20.1065885,32.7906106 C21.8736798,32.7906106 22.5,32.2873213 22.5,31.3031141 C22.5,28.4175932 18.8875044,24.4360122 13.0829112,24.4360122 Z M37.7871024,29.1039448 L27.005918,29.1039448 L26.7648825,29.1201604 C25.8978614,29.237782 25.2296022,29.9809811 25.2296022,30.8802606 C25.2296022,31.8612927 26.0248859,32.6565764 27.005918,32.6565764 L27.005918,32.6565764 L37.7871024,32.6565764 L38.028138,32.6403607 C38.895159,32.5227392 39.5634182,31.77954 39.5634182,30.8802606 C39.5634182,29.8992284 38.7681346,29.1039448 37.7871024,29.1039448 L37.7871024,29.1039448 Z M37.7871024,20.8926956 L27.005918,20.8926956 L26.7648825,20.9089113 C25.8978614,21.0265328 25.2296022,21.769732 25.2296022,22.6690114 C25.2296022,23.6500435 26.0248859,24.4453272 27.005918,24.4453272 L27.005918,24.4453272 L37.7871024,24.4453272 L38.028138,24.4291115 C38.895159,24.31149 39.5634182,23.5682908 39.5634182,22.6690114 C39.5634182,21.6879793 38.7681346,20.8926956 37.7871024,20.8926956 L37.7871024,20.8926956 Z M13.0941119,12.6814464 C10.7006774,12.6814464 8.62042603,14.7728756 8.62042603,17.5130033 C8.62042603,20.2866871 10.6894997,22.4340508 13.0941119,22.4340508 C15.4875233,22.4340508 17.5677747,20.2866871 17.5677747,17.4906478 C17.5677747,14.7281417 15.4875233,12.6814464 13.0941119,12.6814464 Z M37.7871024,12.6814464 L27.005918,12.6814464 L26.7648825,12.6976621 C25.8978614,12.8152836 25.2296022,13.5584828 25.2296022,14.4577622 C25.2296022,15.4387944 26.0248859,16.234078 27.005918,16.234078 L27.005918,16.234078 L37.7871024,16.234078 L38.028138,16.2178624 C38.895159,16.1002408 39.5634182,15.3570417 39.5634182,14.4577622 C39.5634182,13.4767301 38.7681346,12.6814464 37.7871024,12.6814464 L37.7871024,12.6814464 Z" id="Combined-Shape" fill="#000000"></path>
    </g>
</svg>