<?xml version="1.0" encoding="UTF-8"?>
<svg width="45px" height="45px" viewBox="0 0 45 45" version="1.1" xmlns="http://www.w3.org/2000/svg" xmlns:xlink="http://www.w3.org/1999/xlink">
    <title>linked</title>
    <g id="linked" stroke="none" stroke-width="1" fill="none" fill-rule="evenodd">
        <path d="M22.4999028,45 C34.8086803,45 45,34.7867971 45,22.5000836 C45,10.1913061 34.7866343,0.000167282713 22.4778568,0.000167282713 C10.1911253,0.000167282713 0,10.1913061 0,22.5000836 C0,34.7867971 10.2132165,45 22.4999028,45 Z M22.4999028,41.2500064 C12.0881681,41.2500064 3.77202607,32.9118184 3.77202607,22.5000836 C3.77202607,12.088349 12.0661221,3.75016088 22.4778568,3.75016088 C32.8895915,3.75016088 41.2277796,12.088349 41.250047,22.5000836 C41.2720524,32.9118184 32.9116375,41.2500064 22.4999028,41.2500064 Z M22.4778568,21.8162501 C25.6102001,21.8382962 28.1469392,19.1691905 28.1469392,15.6397928 C28.1469392,12.3309908 25.6102001,9.57365589 22.4778568,9.57365589 C19.3455134,9.57365589 16.8087743,12.3309908 16.8087743,15.6397928 C16.8087743,19.1691905 19.3455134,21.7942041 22.4778568,21.8162501 Z M12.3969933,33.6838812 L32.5586752,33.6838812 C33.4410585,33.6838812 33.8601589,33.110323 33.8601589,32.2941681 C33.8601589,29.8897503 30.2204859,23.6250636 22.4778568,23.6250636 C14.7352278,23.6250636 11.0955547,29.8897503 11.0955547,32.2941681 C11.0955547,33.110323 11.5146551,33.6838812 12.3969933,33.6838812 Z" id="Shape" fill="#0066CC" fill-rule="nonzero"></path>
    </g>
</svg>