<?xml version="1.0" encoding="UTF-8"?>
<svg width="45px" height="45px" viewBox="0 0 45 45" version="1.1" xmlns="http://www.w3.org/2000/svg" xmlns:xlink="http://www.w3.org/1999/xlink">
    <title>location</title>
    <g id="location" stroke="none" stroke-width="1" fill="none" fill-rule="evenodd">
        <path d="M4.23737117,23.7530877 L20.7346487,23.8184736 C21.0397529,23.8184736 21.1923051,23.9492453 21.1923051,24.27613 L21.2359105,40.7298109 C21.2359105,42.8001461 22.1512234,44.5 23.8728577,44.5 C25.5291062,44.5 26.4226386,42.9526982 27.2071797,41.2310505 L43.9004362,5.27267709 C44.314621,4.42275015 44.5110018,3.65998946 44.5110018,3.02800049 C44.5110018,1.58964538 43.4429583,0.5 41.9825996,0.5 C41.3290088,0.5 40.5662481,0.67433255 39.7163211,1.08842814 L3.75793435,17.7600381 C2.10168587,18.5227988 0.488998212,19.438067 0.488998212,21.1161405 C0.488998212,22.7942141 2.10168587,23.7530877 4.23737117,23.7530877 Z" id="Path" fill="#000000" fill-rule="nonzero"></path>
    </g>
</svg>