<?xml version="1.0" encoding="UTF-8"?>
<svg width="45px" height="45px" viewBox="0 0 45 45" version="1.1" xmlns="http://www.w3.org/2000/svg" xmlns:xlink="http://www.w3.org/1999/xlink">
    <title>not-linked</title>
    <g id="not-linked" stroke="none" stroke-width="1" fill="none" fill-rule="evenodd">
        <path d="M3.70541918,10.2215103 L6.37747053,12.8929735 C4.72006983,15.6969336 3.77202607,18.9800019 3.77202607,22.5000836 C3.77202607,32.9118184 12.0881681,41.2500064 22.4999028,41.2500064 C26.0216176,41.2500064 29.3086418,40.2960383 32.115972,38.6305338 L34.7745418,41.2904983 C31.2313549,43.6302355 27.0076225,45 22.4999028,45 C10.2132165,45 2.13162821e-14,34.7867971 2.13162821e-14,22.5000836 C2.13162821e-14,17.9906721 1.36782976,13.7654851 3.70541918,10.2215103 Z M6.56583788,3.06419402 L6.67186662,3.16426824 L41.8358154,38.328217 C42.804435,39.2968367 42.804435,40.8672794 41.8358154,41.835899 C40.9017893,42.7699251 39.4081599,42.8032832 38.4341621,41.9359733 L38.3281334,41.835899 L3.1641846,6.67195026 C2.19556496,5.70333062 2.19556496,4.13288789 3.1641846,3.16426824 C4.09821069,2.23024216 5.59184013,2.19688409 6.56583788,3.06419402 Z M22.4778568,0.000167282713 C34.7866343,0.000167282713 45,10.1913061 45,22.5000836 C45,27.0039452 43.6306041,31.2291916 41.289488,34.7749044 L38.6349392,32.1201075 C40.303865,29.313316 41.2574982,26.0255708 41.250047,22.5000836 C41.2277796,12.088349 32.8895915,3.75016088 22.4778568,3.75016088 C18.957775,3.75016088 15.6797466,4.70324451 12.8824584,6.36731712 L10.2190886,3.70445326 C13.7591272,1.36713274 17.9779473,0.000167282713 22.4778568,0.000167282713 Z M17.9246292,24.4398407 L27.168,33.6831673 L12.3969933,33.6838812 C11.5665574,33.6838812 11.1464635,33.1758158 11.0999142,32.4356097 L11.0955547,32.2941681 C11.0955547,30.4232881 13.2991629,26.2152421 17.9246292,24.4398407 Z M22.4778568,9.57365589 C25.6102001,9.57365589 28.1469392,12.3309908 28.1469392,15.6397928 C28.1469392,17.3803751 27.5299696,18.9117227 26.5288598,20.0142332 L18.1956469,11.6807074 C19.2348281,10.3956985 20.7675589,9.57365589 22.4778568,9.57365589 Z" id="Combined-Shape" fill="#0066CC" fill-rule="nonzero"></path>
    </g>
</svg>