<?xml version="1.0" encoding="UTF-8"?>
<svg width="45px" height="45px" viewBox="0 0 45 45" version="1.1" xmlns="http://www.w3.org/2000/svg" xmlns:xlink="http://www.w3.org/1999/xlink">
    <title>diagnostics</title>
    <g id="diagnostics" stroke="none" stroke-width="1" fill="none" fill-rule="evenodd">
        <path d="M22.4999028,44.9999164 C34.8086803,44.9999164 45,34.7867135 45,22.5 C45,10.1912225 34.7866343,8.36413565e-05 22.4778568,8.36413565e-05 C10.1911253,8.36413565e-05 0,10.1912225 0,22.5 C0,34.7867135 10.2132165,44.9999164 22.4999028,44.9999164 Z M11.8455263,25.8088019 C10.0367127,25.8088019 8.53672436,24.3308596 8.53672436,22.477954 C8.53672436,20.6470492 10.0367127,19.1691069 11.8455263,19.1691069 C13.676431,19.1691069 15.1764194,20.6470492 15.1764194,22.477954 C15.1764194,24.3308596 13.698477,25.8088019 11.8455263,25.8088019 Z M22.4778568,25.8088019 C20.6469973,25.8088019 19.1469636,24.3308596 19.1469636,22.477954 C19.1469636,20.6470492 20.6469973,19.1691069 22.4778568,19.1691069 C24.3087164,19.1691069 25.7866587,20.6470492 25.7866587,22.477954 C25.7866587,24.3308596 24.3087164,25.8088019 22.4778568,25.8088019 Z M33.1101422,25.8088019 C31.2572365,25.8088019 29.7792942,24.3308596 29.7792942,22.477954 C29.7792942,20.6470492 31.2572365,19.1691069 33.1101422,19.1691069 C34.9190008,19.1691069 36.4189893,20.6470492 36.4189893,22.477954 C36.4189893,24.3308596 34.9190008,25.8088019 33.1101422,25.8088019 Z" id="Shape" fill="#000000" fill-rule="nonzero"></path>
    </g>
</svg>