<?xml version="1.0" encoding="UTF-8"?>
<svg width="45px" height="45px" viewBox="0 0 45 45" version="1.1" xmlns="http://www.w3.org/2000/svg" xmlns:xlink="http://www.w3.org/1999/xlink">
    <title>purchase-history</title>
    <g id="purchase-history" stroke="none" stroke-width="1" fill="none" fill-rule="evenodd">
        <path d="M9.87401648,45 L35.7864333,45 C39.7272188,45 42.038883,42.7103748 42.038883,38.1751529 L42.038883,15.3889565 C42.038883,10.8537301 39.7052159,8.56411397 35.1259835,8.56411397 L31.6034798,8.56411397 C31.4933748,3.94083066 27.4645323,0 22.488976,0 C17.5134648,0 13.4845771,3.94083066 13.3745172,8.56411397 L9.87401648,8.56411397 C5.2727361,8.56411397 2.96111697,10.8317272 2.96111697,15.3889565 L2.96111697,38.1751529 C2.96111697,42.7323913 5.2727361,45 9.87401648,45 Z M22.488976,3.34638984 C25.5931979,3.34638984 27.9488681,5.68005699 28.058928,8.56411397 L16.919024,8.56411397 C17.0290839,5.68005699 19.3847992,3.34638984 22.488976,3.34638984 Z" id="Shape" fill="#000000" fill-rule="nonzero"></path>
    </g>
</svg>