<?xml version="1.0" encoding="UTF-8"?>
<svg width="45px" height="45px" viewBox="0 0 45 45" version="1.1" xmlns="http://www.w3.org/2000/svg" xmlns:xlink="http://www.w3.org/1999/xlink">
    <title>search-history</title>
    <g id="search-history" stroke="none" stroke-width="1" fill="none" fill-rule="evenodd">
        <path d="M22.4999028,45 C34.8087261,45 45.0000836,34.7867591 45.0000836,22.5 C45.0000836,10.1911767 34.78668,0 22.4778567,0 C10.1910795,0 -8.36416677e-05,10.1911767 -8.36416677e-05,22.5 C-8.36416677e-05,34.7867591 10.2131708,45 22.4999028,45 Z M10.5660893,19.8970679 C10.5660893,14.6911586 14.8234285,10.4117734 20.0293378,10.4117734 C25.2352019,10.4117734 29.4925411,14.6691125 29.4925411,19.8970679 C29.4925411,21.8382101 28.8748885,23.6691216 27.8602252,25.1470695 L33.705788,31.0367697 C34.0807978,31.4338255 34.3234406,31.9191111 34.3234406,32.4264879 C34.3234406,33.5735182 33.573421,34.3896987 32.470483,34.3896987 C31.8087381,34.3896987 31.3234526,34.1691111 30.8602132,33.6838391 L25.0366965,27.8823686 C23.5807948,28.7867561 21.8602042,29.3602712 20.0293378,29.3602712 C14.8234285,29.3602712 10.5660893,25.080886 10.5660893,19.8970679 Z M13.6763982,19.8970679 C13.6763982,23.3602953 16.5440191,26.2500075 20.0293378,26.2500075 C23.4925652,26.2500075 26.3601861,23.3602953 26.3601861,19.8970679 C26.3601861,16.3897032 23.4925652,13.5220371 20.0293378,13.5220371 C16.5440191,13.5220371 13.6763982,16.4117493 13.6763982,19.8970679 Z" id="Shape" fill="#000000" fill-rule="nonzero"></path>
    </g>
</svg>