<?xml version="1.0" encoding="UTF-8"?>
<svg width="45px" height="45px" viewBox="0 0 45 45" version="1.1" xmlns="http://www.w3.org/2000/svg" xmlns:xlink="http://www.w3.org/1999/xlink">
    <title>sensitive-info</title>
    <g id="sensitive-info" stroke="none" stroke-width="1" fill="none" fill-rule="evenodd">
        <path d="M22.5761546,37.1169374 C35.8718795,37.1169374 45.0678258,26.3607534 45.0678258,23.0077396 C45.0678258,19.6381362 35.855222,8.89855183 22.5761546,8.89855183 C9.44629047,8.89855183 0.067825781,19.6381362 0.067825781,23.0077396 C0.067825781,26.3607534 9.44629047,37.1169374 22.5761546,37.1169374 Z M22.5761546,32.2534169 C17.3972434,32.2534169 13.2972948,28.0538668 13.2805229,23.0077396 C13.2640819,17.8288284 17.3972434,13.7620927 22.5761546,13.7620927 C27.7052632,13.7620927 31.8550483,17.8288284 31.8550483,23.0077396 C31.8550483,28.0538668 27.7052632,32.2534169 22.5761546,32.2534169 Z M22.5761546,26.3441638 C24.4186414,26.3441638 25.9457579,24.8336368 25.9457579,23.0077396 C25.9457579,21.1652528 24.4186414,19.6547257 22.5761546,19.6547257 C20.7170444,19.6547257 19.1899278,21.1652528 19.1899278,23.0077396 C19.1899278,24.8336368 20.7170444,26.3441638 22.5761546,26.3441638 Z" id="Shape" fill="#000000" fill-rule="nonzero"></path>
    </g>
</svg>