<?xml version="1.0" encoding="UTF-8"?>
<svg width="45px" height="45px" viewBox="0 0 45 45" version="1.1" xmlns="http://www.w3.org/2000/svg" xmlns:xlink="http://www.w3.org/1999/xlink">
    <title>track-you</title>
    <g id="track-you" stroke="none" stroke-width="1" fill="none" fill-rule="evenodd">
        <path d="M1.83858092,30.3830887 C2.97678145,30.3830887 3.63550461,30.9876118 3.6956592,32.0974086 L3.70017823,32.2676553 L3.70017823,37.6915255 C3.70017823,40.0046108 4.88396245,41.2199836 7.0433141,41.2959878 L7.26249344,41.2997888 L12.8242691,41.2997888 C14.0423489,41.2997888 14.7088356,41.9662803 14.7088356,43.1613768 C14.7088356,44.2776524 14.1043125,44.9353742 12.9945157,44.9954831 L12.8242691,45 L7.2165078,45 C2.5111712,45 0.0994911576,42.7284119 0.00301497803,38.1636707 L2.30926389e-14,37.8753883 L2.30926389e-14,32.2676553 C2.30926389e-14,31.0495754 0.643517448,30.3830887 1.83858092,30.3830887 Z M43.1384498,30.3830887 C44.2766055,30.3830887 44.9353265,30.9876118 44.995481,32.0974086 L45,32.2676553 L45,37.8753883 C45,42.5131726 42.6843021,44.9014642 38.0744093,44.9970139 L37.783304,45 L32.1525734,45 C30.9575099,45 30.2909761,44.3334662 30.2909761,43.1613768 C30.2909761,42.0231897 30.8955419,41.3644628 31.9854604,41.3043079 L32.1525734,41.2997888 L37.7143489,41.2997888 C39.9162332,41.2997888 41.2139805,40.1590316 41.2954149,37.9191735 L41.2994924,37.6915255 L41.2994924,32.2676553 C41.2994924,31.0495754 41.9429157,30.3830887 43.1384498,30.3830887 Z M22.4925829,24.7630323 C30.18025,24.7630323 34.964679,30.0362821 34.964679,33.8578976 C34.964679,35.1613925 34.1351736,35.8279545 31.7948184,35.8279545 L31.7948184,35.8279545 L13.1903776,35.8279545 C10.864796,35.8279545 10.035321,35.1613925 10.035321,33.8578976 C10.035321,30.0362821 14.81975,24.7630323 22.4925829,24.7630323 Z M22.5074171,9.19515605 C25.6772777,9.19515605 28.4323855,11.9058218 28.4323855,15.5645153 C28.4323855,19.2676205 25.6772777,22.1116126 22.5074171,22.1116126 C19.3227224,22.1116126 16.5824184,19.2676205 16.5824184,15.5941231 C16.5824184,11.9650678 19.3375263,9.19515605 22.5074171,9.19515605 Z M37.783304,0.0231105226 C42.4887789,0.0231105226 44.9005069,2.29468056 44.996985,6.83782061 L45,7.12472464 L45,12.7554552 C45,13.9505658 44.3561061,14.6400219 43.1384498,14.6400219 C42.021811,14.6400219 41.3641146,14.0146649 41.3040089,12.9227256 L41.2994924,12.7554552 L41.2994924,7.3315897 C41.2994924,5.01847251 40.0727736,3.80309427 37.931512,3.72708976 L37.7143489,3.72328876 L32.1525734,3.72328876 C30.9575099,3.72328876 30.2909761,3.056802 30.2909761,1.86173852 C30.2909761,0.723537994 30.8955419,0.0856486763 31.9854604,0.0274782663 L32.1525734,0.0231105226 L37.783304,0.0231105226 Z M12.8242691,0.0231105226 C14.0423489,0.0231105226 14.7088356,0.666627968 14.7088356,1.86173852 C14.7088356,2.99989421 14.1043125,3.65861524 12.9945157,3.71876973 L12.8242691,3.72328876 L7.26249344,3.72328876 C5.03833532,3.72328876 3.78280407,4.86405032 3.70411647,7.10393865 L3.70017823,7.3315897 L3.70017823,12.7554552 C3.70017823,13.9505658 3.05666079,14.6400219 1.83858092,14.6400219 C0.722300768,14.6400219 0.0646214316,14.0146649 0.00451655184,12.9227256 L2.30926389e-14,12.7554552 L2.30926389e-14,7.12472464 C2.30926389e-14,2.48693584 2.31565276,0.120717048 6.92541099,0.026068296 L7.2165078,0.0231105226 L12.8242691,0.0231105226 Z" id="Combined-Shape" fill="#0066CC" fill-rule="nonzero"></path>
    </g>
</svg>