<?xml version="1.0" encoding="UTF-8"?>
<svg width="45px" height="45px" viewBox="0 0 45 45" version="1.1" xmlns="http://www.w3.org/2000/svg" xmlns:xlink="http://www.w3.org/1999/xlink">
    <title>usage-data</title>
    <g id="usage-data" stroke="none" stroke-width="1" fill="none" fill-rule="evenodd">
        <path d="M35.9211375,39.0549514 L41.2574814,39.0549514 C43.7285339,39.0549514 45,37.8730929 45,35.5272848 L45,9.4906312 C45,7.14481834 43.7285339,5.94504865 41.2574814,5.94504865 L35.9211375,5.94504865 C33.4860249,5.94504865 32.2145588,7.14481834 32.2145588,9.4906312 L32.2145588,35.5272848 C32.2145588,37.8730929 33.4860249,39.0549514 35.9211375,39.0549514 Z M19.8229531,39.0549514 L25.1592236,39.0549514 C27.630386,39.0549514 28.8838456,37.8730929 28.8838456,35.5272848 L28.8838456,14.7194486 C28.8838456,12.3736358 27.630386,11.1738661 25.1592236,11.1738661 L19.8229531,11.1738661 C17.3697239,11.1738661 16.0983311,12.3736358 16.0983311,14.7194486 L16.0983311,35.5272848 C16.0983311,37.8730929 17.3697239,39.0549514 19.8229531,39.0549514 Z M3.72462201,39.0549514 L9.04299584,39.0549514 C11.5141583,39.0549514 12.7855512,37.8730929 12.7855512,35.5272848 L12.7855512,19.9303694 C12.7855512,17.5845566 11.5141583,16.3847869 9.04299584,16.3847869 L3.72462201,16.3847869 C1.2713928,16.3847869 0,17.5845566 0,19.9303694 L0,35.5272848 C0,37.8730929 1.2713928,39.0549514 3.72462201,39.0549514 Z" id="Shape" fill="#000000" fill-rule="nonzero"></path>
    </g>
</svg>