<?xml version="1.0" encoding="UTF-8"?>
<svg width="45px" height="45px" viewBox="0 0 45 45" version="1.1" xmlns="http://www.w3.org/2000/svg" xmlns:xlink="http://www.w3.org/1999/xlink">
    <title>user-content</title>
    <g id="user-content" stroke="none" stroke-width="1" fill="none" fill-rule="evenodd">
        <path d="M6.17812453,17.2069095 C6.17812453,12.3903384 8.73106336,9.87141923 13.5816541,9.87141923 L36.4902039,9.87141923 L36.4902039,9.44592942 C36.4902039,5.93988229 34.7031256,4.16984887 31.146049,4.16984887 L5.34415475,4.16984887 C1.77003341,4.16984887 0,5.93988229 0,9.44592942 L0,27.3676005 C0,30.8736476 1.77003341,32.6266817 5.34415475,32.6266817 L6.17812453,32.6266817 L6.17812453,17.2069095 Z M13.836941,40.8301511 L39.6558453,40.8301511 C43.1958423,40.8301511 45,39.0601177 45,35.5540599 L45,17.4621964 C45,13.9731591 43.1958423,12.2031257 39.6558453,12.2031257 L13.836941,12.2031257 C10.2798644,12.2031257 8.49278628,13.9561492 8.49278628,17.4621964 L8.49278628,35.5540599 C8.49278628,39.0601177 10.2798644,40.8301511 13.836941,40.8301511 Z M20.3724812,26.3294081 C18.1939678,26.3294081 16.4239344,24.5593748 16.4239344,22.3808614 C16.4239344,20.2193578 18.1939678,18.4323145 20.3724812,18.4323145 C22.5339847,18.4323145 24.3040182,20.2193578 24.3040182,22.3808614 C24.3040182,24.5593748 22.5339847,26.3294081 20.3724812,26.3294081 Z M13.6497283,38.0899855 C12.117972,38.0899855 11.2329378,37.221982 11.2329378,35.6731984 L11.2329378,34.277587 L14.2114014,31.5714655 C15.7091032,30.2098807 16.5941373,29.2738171 17.7855227,29.2738171 C19.0109277,29.2738171 19.9810459,30.2439352 21.5468568,31.5884858 L23.1466873,33.0181344 L28.7121093,27.9973477 C30.5841668,26.3123983 31.8097113,25.1720773 33.2904033,25.1720773 C34.8052544,25.1720773 36.081689,26.2783438 37.9025777,27.9973477 L42.2596044,32.1331142 L42.2596044,35.6731984 C42.2596044,37.221982 41.3578742,38.0899855 39.8430232,38.0899855 L13.6497283,38.0899855 Z" id="Shape" fill="#000000" fill-rule="nonzero"></path>
    </g>
</svg>